<svg viewBox="0 0 850 160" xmlns="http://www.w3.org/2000/svg">
  <path fill="#888D91" d="M113 0c22.6 0 43.7 9.4 58.7 25.6l.6.7 79.8 79.8.8.8a39.8 39.8 0 0 0 59 .3l1-1.1 26-26.1-26-26-.8-1a39.8 39.8 0 0 0-59-.2l-1 1.1-19 19-10.6-10.6 18.8-18.7.8-1a54.7 54.7 0 0 1 80.8 0l.8 1L360.1 80l-36.4 36.4-.8 1a54.7 54.7 0 0 1-80.8 0l-.8-1-79.8-79.7-.8-.9a64.7 64.7 0 0 0-95-.3l-.4.3-.8.9L21.2 80l43.3 43.3.8.9a64.7 64.7 0 0 0 95 .4l.4-.4.4-.4.4-.5 18.6-18.6 10.6 10.6-18.4 18.4-.6.7a79.7 79.7 0 0 1-117.4 0l-.6-.7L0 80l53.7-53.7.6-.6A79.7 79.7 0 0 1 113 0Zm169.5 0c22.6 0 43.7 9.4 58.7 25.6l.6.7L395.5 80l-53.7 53.7-.6.7a79.7 79.7 0 0 1-117.4 0l-.6-.7-79.8-79.8-.8-.8a39.8 39.8 0 0 0-59-.3l-1 1.1-26 26.1 26 26 .8 1a39.8 39.8 0 0 0 59 .2l1-1.1 19-19L173 97.5l-18.8 18.8-.8 1a54.7 54.7 0 0 1-80.8 0l-.8-1L35.4 80l36.4-36.4.8-1a54.7 54.7 0 0 1 80.8 0l.8 1 79.8 79.7.4.5a64.8 64.8 0 0 0 95.8.4l.8-.9L374.3 80 331 36.7l-.4-.5a64.8 64.8 0 0 0-95.8-.4l-.4.4-.4.5-18.5 18.5-10.6-10.6 18.3-18.3.6-.6A79.7 79.7 0 0 1 282.5 0Zm186.6 22.3 2.8 30.3-5.2 1.4-.6-1.9c-.8-2.7-1.6-5-2.5-7.2l-.3-.6-.3-.7c-3.6-7.8-8-11.5-13.5-11.5-5.7 0-10.2 5.5-10.2 12.6 0 5.2 2.1 8.9 7.5 13.2l.3.2.7.6.8.5.3.3.4.3 1 .7 1 .7 1 .6.9.6 4.2 2.7 1 .8 1.1.6 1 .7c4 2.9 6.8 5.2 9.2 8.1 4 4.8 6 10.3 6 17 0 14.6-10.8 24.9-26.2 24.9-3.3 0-6-.5-8.8-1.3l-.6-.2h-.2l-2.7-1-.4-.2-.9-.1c-1 0-1.8.8-2.6 3.5l-.4 1.4h-5L425.7 87l5.2-1.4.5 2 .1.5.2.5.2 1 .2.5.2 1 .3.9.8 2.3.3.8.3.8c3.7 9.6 9 14 16.2 14 7.8 0 13.2-5.2 13.2-12.6 0-5.3-2-9-7.4-13.5l-.3-.3-.7-.5-1-.7-.4-.4-.8-.5-.4-.3-.8-.6-.4-.3-1-.6-.8-.6-1-.6-3.3-2.2-1-.7-1-.6-.9-.6-.8-.7-.9-.5-.4-.3-.7-.6a50 50 0 0 1-3.6-2.9l-.4-.4-.6-.5-2.1-2.3c-4-4.6-6.1-9.8-6.1-16.1a24.4 24.4 0 0 1 30.9-24.2l.5.1 1.2.3 1 .3.3.1h.2l.3.1h.6c.9 0 1.3-.4 1.7-1.8v-.2l.2-.4v-.5l.3-1.1 5.2-.5Zm175.4 28.4V56h-2.2l-.5.1h-.5l-.3.1h-.5a3 3 0 0 0-2 1.3v.2l-.2.3v.1l-.2.2-.1.3-.1.1-.2.4-.1.4-.2.4-.2.4-.3.8-.4 1.1-19.6 55.6H612l-20.3-54.4-.6-1.6-.3-.8-.2-.5-.2-.5-.2-.4-.2-.4V59l-.3-.4c-.8-1.5-1.6-2.1-3-2.4h-.8l-.4-.1H583v-5.4l2.8.2 2.6.1 2.4.1 1.7.1h12.4l2.9-.2 5.1-.3V56h-2.4l-1 .1h-1l-.6.1h-.3l-.5.1h-.2l-.3.1h-.3v.1h-.2l-.1.2c-.3.1-.4.3-.4.5V59l.1.3.2.5v.3l.2.6.2.5.3 1 .6 2 10.6 32.1 9-27.7.4-.9.5-1.6.2-.8.3-1 .2-.7.2-.6.2-.6.1-.5.1-.5.1-.5.1-.5.1-.4v-.4l.1-.4v-1.5c0-.6-.4-1-1.2-1.1h-.2l-.2-.2h-1l-.2-.1h-.9l-.8-.1H622v-5.4l4 .3 2.4.1 1.7.1h8.9l1-.1 1.1-.1 1.2-.1 2.3-.2Zm179.7-2.2c12.6 0 21.5 8.4 21.7 25.1v1.9L811.7 79v.2l.5 5.6v1l.3 1.2.1.9.5 2.1.2.8v.4l.3.8c2.5 9.2 7.5 15.1 13.8 15.5h.5c4.8 0 10.4-3 15.3-8l.3-.3 1.2-1.3 3.2 4.2-.7 1c-7.6 9-14.9 14-24.4 14-14.9 0-25.6-12.6-25.6-32.8 0-20.9 10.7-35.8 27-35.8Zm-44.4-11.8v12.6L794 51v5l-14.3 1.5v43.6c0 5.5 1.4 7.6 4.5 7.8h.4c2.6 0 4.9-1 7-3.2l.3-.2 1.3-1.4 2.9 4.7-.7.8c-4 4.7-9.2 7.5-15.2 7.5-8.4 0-14.2-5.4-14.3-14v-46l-7.2-1.1v-5.3h1.5c7.9 0 13.2-4.7 14.2-12.4V38l.2-1.4h5ZM508 48.5c12.6 0 21.5 8.4 21.7 25.1v1.9L495.6 79v.2c0 2.7.3 5.4.7 7.8l.2.9c0 .7.2 1.4.4 2.1l.2.8v.4l.3.8c.6 2.1 1.3 4 2.1 5.8l.3.6c2.8 5.5 6.7 8.8 11.4 9h.5c4.8 0 10.4-2.9 15.3-7.9l.3-.3 1.2-1.3 3.2 4.2-.7 1c-7.6 9-14.9 14-24.4 14-14.9 0-25.6-12.6-25.6-32.8 0-20.9 10.7-35.8 27-35.8Zm159.5 0c12.6 0 21.5 8.4 21.7 25.1v1.9L655.1 79v.2c0 2.7.3 5.4.7 7.8l.2.9.4 2.1.2.8c2.4 9.8 7.6 16.3 14.1 16.7h.6c4.8 0 10.3-3 15.2-8l.4-.3 1.2-1.3 3.2 4.2-.8 1c-7.5 9-14.9 14-24.4 14-14.8 0-25.5-12.6-25.5-32.8 0-20.9 10.6-35.8 27-35.8Zm-115.3-.2 4 1.1v7l.2-.1c4.6-5.2 9-7.6 13.8-7.8h.7c6 0 10.3 3 10.3 8 0 4.1-3 7.6-7.2 7.6-2.6 0-4-1-5.8-3.4l-.7-1c-1-1.3-1.6-1.7-2.6-1.7-3.3 0-6.3 4.1-7.8 11.4v.4l-.2.8v.3l-.2.8v.4l-.1.8v.8l-.3 2.8v29.3l.1.3v.4l.1.3v.3h.1v.2l.1.3.3.7.2.2.1.2.1.1.2.2.3.2.2.2h.2l.2.2.5.2h.3l.3.2h.3l.3.1h.4l.3.1.6.1h.7l1 .2h1.2l4.2.4v5.1h-36v-5.1l1.4-.1 2.5-.2 1-.1h.5l.6-.1.4-.1h.3l.3-.2h.4l.1-.1.2-.1c.8-.4 1.3-1 1.6-1.8v-.2l.2-.2v-.5l.1-.3v-.4l.1-.5v-.8l.1-.6V66.2l-.1-.3-.1-.4c-.5-2.1-1.6-3-4.5-3.4h-1.2l-.5-.1h-4.6v-5.3h1.5c8.2 0 13.3-2.2 18.3-7.4l.3-.3.7-.7Zm161-.2 2.6 1.6v7.5l.8-.6 1.8-1.2 1.3-1 1.1-.8.6-.3.8-.5.7-.5.6-.4.5-.3.4-.2.4-.2.4-.2.4-.2.3-.2.4-.2.3-.2.6-.2.3-.1.5-.2.3-.1.6-.2c1.9-.6 3.8-1 5.9-1 9.2 0 14 5.5 15 16.6v.4l.1.9v1.3l.1.4v36.8l.1.6v.6l.1.4v.3l.1.4c.3 1.6 1 2.4 2.3 2.9h.2l.3.1h.1l.4.1h.4l.4.2h.4l.8.1h1l3.4.4v5.1h-32.4v-5.1l2.3-.2 1.2-.1h.6l.5-.1h.4l.3-.1.2-.1h.3l.1-.1h.3l.1-.1.2-.1h.2c.8-.5 1.3-1 1.6-2.1v-.5l.1-.4v-.5l.1-.5v-1.1l.1-.7V71.5l-.1-.8v-.4l-.1-.3-.1-.8v-.7c-1.2-7.4-4.2-10.5-8.6-10.5-6 0-11.4 6.4-11.5 15.4V106l.1.4v.3l.1.4v.4l.1.3c.3 1 .6 1.5 1.2 2h.2l.2.1h.1l.1.1.2.1h.3l.1.1.3.1h.2l.3.1h.3l.5.2h.6l1 .1 2.8.3v5.1H692V111l1.4-.1 2.5-.2 1-.1h.6l.5-.1.5-.1h.3l.2-.2h.4l.1-.1.3-.1a3 3 0 0 0 1.6-2v-.2l.2-.3v-.5l.1-.4v-.9l.1-.4V66.2l-.1-.3v-.4c-.5-2.1-1.7-3-4.5-3.4H696l-.5-.1H691v-5.3h1.5c8.1 0 13.2-2 19.6-7.5l1.2-1ZM113 50a30 30 0 1 1 0 60 30 30 0 0 1 0-60Zm169.5 0a30 30 0 1 1 0 60 30 30 0 0 1 0-60Zm540.2 4.9h-.3c-5.3.1-9 5.7-10.2 15.1v.6h19.4v-.4c-.5-6.1-1.7-10.2-3.6-12.6l-.2-.2a6.3 6.3 0 0 0-4.9-2.5h-.2Zm-316.2 0h-.3c-5.3.1-9 5.7-10.2 15.1v.6h19.4v-.4c-.4-6.1-1.7-10.2-3.6-12.6l-.2-.2a6.3 6.3 0 0 0-4.9-2.5h-.2Zm159.5 0h-.2c-5.3.1-9 5.7-10.3 15.1v.6H675v-.4c-.5-6.1-1.8-10.2-3.7-12.6l-.1-.2a6.3 6.3 0 0 0-5-2.5h-.2Z"/>
</svg>